<?xml version="1.0" encoding="UTF-8"?>
<svg xmlns="http://www.w3.org/2000/svg" width="1400" height="900" viewBox="0 0 1400 900">
<defs>
<linearGradient id="bg" x1="0%" y1="0%" x2="100%" y2="100%">
<stop offset="0%" stop-color="#0b1020"/>
<stop offset="100%" stop-color="#161f38"/>
</linearGradient>
<linearGradient id="acc" x1="0%" y1="0%" x2="100%" y2="0%">
<stop offset="0%" stop-color="#00E5FF"/>
<stop offset="100%" stop-color="#B026FF"/>
</linearGradient>
<style>
text{font-family:Segoe UI,Arial,sans-serif;fill:#ECF8FF}
.t{font-size:34px;font-weight:700}
.h{font-size:24px;font-weight:700}
.b{font-size:20px}
.s{font-size:16px}
</style>
</defs>
<rect width="1400" height="900" fill="url(#bg)"/>
<line x1="0" y1="0" x2="0" y2="900" stroke="#5b7fb8" opacity=".08"/><line x1="40" y1="0" x2="40" y2="900" stroke="#5b7fb8" opacity=".08"/><line x1="80" y1="0" x2="80" y2="900" stroke="#5b7fb8" opacity=".08"/><line x1="120" y1="0" x2="120" y2="900" stroke="#5b7fb8" opacity=".08"/><line x1="160" y1="0" x2="160" y2="900" stroke="#5b7fb8" opacity=".08"/><line x1="200" y1="0" x2="200" y2="900" stroke="#5b7fb8" opacity=".08"/><line x1="240" y1="0" x2="240" y2="900" stroke="#5b7fb8" opacity=".08"/><line x1="280" y1="0" x2="280" y2="900" stroke="#5b7fb8" opacity=".08"/><line x1="320" y1="0" x2="320" y2="900" stroke="#5b7fb8" opacity=".08"/><line x1="360" y1="0" x2="360" y2="900" stroke="#5b7fb8" opacity=".08"/><line x1="400" y1="0" x2="400" y2="900" stroke="#5b7fb8" opacity=".08"/><line x1="440" y1="0" x2="440" y2="900" stroke="#5b7fb8" opacity=".08"/><line x1="480" y1="0" x2="480" y2="900" stroke="#5b7fb8" opacity=".08"/><line x1="520" y1="0" x2="520" y2="900" stroke="#5b7fb8" opacity=".08"/><line x1="560" y1="0" x2="560" y2="900" stroke="#5b7fb8" opacity=".08"/><line x1="600" y1="0" x2="600" y2="900" stroke="#5b7fb8" opacity=".08"/><line x1="640" y1="0" x2="640" y2="900" stroke="#5b7fb8" opacity=".08"/><line x1="680" y1="0" x2="680" y2="900" stroke="#5b7fb8" opacity=".08"/><line x1="720" y1="0" x2="720" y2="900" stroke="#5b7fb8" opacity=".08"/><line x1="760" y1="0" x2="760" y2="900" stroke="#5b7fb8" opacity=".08"/><line x1="800" y1="0" x2="800" y2="900" stroke="#5b7fb8" opacity=".08"/><line x1="840" y1="0" x2="840" y2="900" stroke="#5b7fb8" opacity=".08"/><line x1="880" y1="0" x2="880" y2="900" stroke="#5b7fb8" opacity=".08"/><line x1="920" y1="0" x2="920" y2="900" stroke="#5b7fb8" opacity=".08"/><line x1="960" y1="0" x2="960" y2="900" stroke="#5b7fb8" opacity=".08"/><line x1="1000" y1="0" x2="1000" y2="900" stroke="#5b7fb8" opacity=".08"/><line x1="1040" y1="0" x2="1040" y2="900" stroke="#5b7fb8" opacity=".08"/><line x1="1080" y1="0" x2="1080" y2="900" stroke="#5b7fb8" opacity=".08"/><line x1="1120" y1="0" x2="1120" y2="900" stroke="#5b7fb8" opacity=".08"/><line x1="1160" y1="0" x2="1160" y2="900" stroke="#5b7fb8" opacity=".08"/><line x1="1200" y1="0" x2="1200" y2="900" stroke="#5b7fb8" opacity=".08"/><line x1="1240" y1="0" x2="1240" y2="900" stroke="#5b7fb8" opacity=".08"/><line x1="1280" y1="0" x2="1280" y2="900" stroke="#5b7fb8" opacity=".08"/><line x1="1320" y1="0" x2="1320" y2="900" stroke="#5b7fb8" opacity=".08"/><line x1="1360" y1="0" x2="1360" y2="900" stroke="#5b7fb8" opacity=".08"/><line x1="1400" y1="0" x2="1400" y2="900" stroke="#5b7fb8" opacity=".08"/><line x1="0" y1="0" x2="1400" y2="0" stroke="#5b7fb8" opacity=".08"/><line x1="0" y1="40" x2="1400" y2="40" stroke="#5b7fb8" opacity=".08"/><line x1="0" y1="80" x2="1400" y2="80" stroke="#5b7fb8" opacity=".08"/><line x1="0" y1="120" x2="1400" y2="120" stroke="#5b7fb8" opacity=".08"/><line x1="0" y1="160" x2="1400" y2="160" stroke="#5b7fb8" opacity=".08"/><line x1="0" y1="200" x2="1400" y2="200" stroke="#5b7fb8" opacity=".08"/><line x1="0" y1="240" x2="1400" y2="240" stroke="#5b7fb8" opacity=".08"/><line x1="0" y1="280" x2="1400" y2="280" stroke="#5b7fb8" opacity=".08"/><line x1="0" y1="320" x2="1400" y2="320" stroke="#5b7fb8" opacity=".08"/><line x1="0" y1="360" x2="1400" y2="360" stroke="#5b7fb8" opacity=".08"/><line x1="0" y1="400" x2="1400" y2="400" stroke="#5b7fb8" opacity=".08"/><line x1="0" y1="440" x2="1400" y2="440" stroke="#5b7fb8" opacity=".08"/><line x1="0" y1="480" x2="1400" y2="480" stroke="#5b7fb8" opacity=".08"/><line x1="0" y1="520" x2="1400" y2="520" stroke="#5b7fb8" opacity=".08"/><line x1="0" y1="560" x2="1400" y2="560" stroke="#5b7fb8" opacity=".08"/><line x1="0" y1="600" x2="1400" y2="600" stroke="#5b7fb8" opacity=".08"/><line x1="0" y1="640" x2="1400" y2="640" stroke="#5b7fb8" opacity=".08"/><line x1="0" y1="680" x2="1400" y2="680" stroke="#5b7fb8" opacity=".08"/><line x1="0" y1="720" x2="1400" y2="720" stroke="#5b7fb8" opacity=".08"/><line x1="0" y1="760" x2="1400" y2="760" stroke="#5b7fb8" opacity=".08"/><line x1="0" y1="800" x2="1400" y2="800" stroke="#5b7fb8" opacity=".08"/><line x1="0" y1="840" x2="1400" y2="840" stroke="#5b7fb8" opacity=".08"/><line x1="0" y1="880" x2="1400" y2="880" stroke="#5b7fb8" opacity=".08"/>
<rect x="40" y="40" width="1320" height="820" rx="24" fill="#101827" stroke="url(#acc)" stroke-width="3"/>
<text x="700" y="85" text-anchor="middle" class="t">🏆 CERTIFICATION VAULT</text>
<circle cx="1215" cy="78" r="7" fill="#27c93f"/>
<text x="1230" y="84" class="s">VERIFIED DATABASE</text>

<rect x="390" y="120" width="620" height="80" rx="16" fill="#18233d" stroke="url(#acc)" stroke-width="2"/>
<text x="700" y="155" text-anchor="middle" class="h">IBM SkillsBuild</text>
<text x="700" y="180" text-anchor="middle" class="s">✔ VERIFIED PROVIDER</text>

<rect x="90" y="230" width="1220" height="95" rx="14" fill="#18233d" stroke="#2ccfff"/>
<text x="115" y="265" class="b">📊 Data Visualization with Python</text>
<text x="115" y="293" class="s">IBM SkillsBuild</text>
<text x="300" y="293" class="s">VERIFIED ✔</text>
<text x="1230" y="280" text-anchor="end" class="b">2025</text>

<rect x="90" y="338" width="1220" height="95" rx="14" fill="#18233d" stroke="#2ccfff"/>
<text x="115" y="373" class="b">🛠 Data Science Tools</text>
<text x="115" y="401" class="s">IBM SkillsBuild</text>
<text x="300" y="401" class="s">VERIFIED ✔</text>
<text x="1230" y="388" text-anchor="end" class="b">2025</text>

<rect x="90" y="446" width="1220" height="95" rx="14" fill="#18233d" stroke="#2ccfff"/>
<text x="115" y="481" class="b">☁ Cloud Application Developer</text>
<text x="115" y="509" class="s">IBM SkillsBuild</text>
<text x="300" y="509" class="s">VERIFIED ✔</text>
<text x="1230" y="496" text-anchor="end" class="b">2025</text>

<rect x="90" y="554" width="1220" height="95" rx="14" fill="#18233d" stroke="#2ccfff"/>
<text x="115" y="589" class="b">🤖 Artificial Intelligence Analyst</text>
<text x="115" y="617" class="s">IBM SkillsBuild</text>
<text x="300" y="617" class="s">VERIFIED ✔</text>
<text x="1230" y="604" text-anchor="end" class="b">2026</text>

<rect x="90" y="662" width="1220" height="95" rx="14" fill="#18233d" stroke="#2ccfff"/>
<text x="115" y="697" class="b">📈 Statistics for Data Science</text>
<text x="115" y="725" class="s">IBM SkillsBuild</text>
<text x="300" y="725" class="s">VERIFIED ✔</text>
<text x="1230" y="712" text-anchor="end" class="b">2025</text>

<rect x="90" y="790" width="1220" height="50" rx="12" fill="#18233d" stroke="url(#acc)"/>
<text x="120" y="822" class="s">Certifications: 5</text>
<text x="360" y="822" class="s">Provider: IBM SkillsBuild</text>
<text x="720" y="822" class="s">Focus: AI • Cloud • Data Science • Analytics</text>
<text x="120" y="845" class="s">CGPA: 8.10</text>
<text x="300" y="845" class="s">SGPA: 9.50</text>
</svg>
