<?xml version="1.0" encoding="UTF-8"?>
<svg xmlns="http://www.w3.org/2000/svg" width="1400" height="1700" viewBox="0 0 1400 1700">
<defs>
<linearGradient id="bg" x1="0" y1="0" x2="1" y2="1"><stop offset="0%" stop-color="#0b1020"/><stop offset="100%" stop-color="#151f38"/></linearGradient>
<linearGradient id="acc" x1="0" y1="0" x2="1" y2="0"><stop offset="0%" stop-color="#00E5FF"/><stop offset="100%" stop-color="#B026FF"/></linearGradient>
<style>
text{font-family:Segoe UI,Arial,sans-serif;fill:#eef7ff}
.t{font-size:34px;font-weight:700}.h{font-size:24px;font-weight:700}.b{font-size:18px}.s{font-size:15px}.badge{font-size:13px;font-weight:600}
</style></defs>
<rect width="1400" height="1700" fill="url(#bg)"/>
<rect x="40" y="40" width="1320" height="1620" rx="24" fill="#101827" stroke="url(#acc)" stroke-width="3"/>
<circle cx="75" cy="75" r="8" fill="#ff5f56"/><circle cx="100" cy="75" r="8" fill="#ffbd2e"/><circle cx="125" cy="75" r="8" fill="#27c93f"/>
<text x="700" y="85" text-anchor="middle" class="t">Experience Terminal</text>
<text x="1230" y="85" class="s">CAREER DATABASE • ONLINE</text>

<rect x="80" y="170" width="1240" height="360" rx="18" fill="#18233d" stroke="url(#acc)" stroke-width="2"/>
<text x="105" y="208" class="h">🤖 Generative AI Intern</text>
<text x="1230" y="208" text-anchor="end" class="b">July 2025</text>
<text x="105" y="238" class="s">Sipher Web Academy Pvt. Ltd. • Lucknow • On-site</text>
<text x="110" y="275" class="b">• Leveraged Generative AI &amp; LLMs to automate analytical workflows.</text>
<text x="110" y="309" class="b">• Cleaned &amp; analyzed 10,000+ records using Python, Pandas &amp; EDA.</text>
<text x="110" y="343" class="b">• Applied Prompt Engineering &amp; response validation.</text>
<text x="110" y="377" class="b">• Built interactive Power BI dashboards for KPI visualization.</text>
<text x="105" y="420" class="h">Technical Skills &amp; Coding Platforms</text>
<rect x="110" y="450" width="88" height="28" rx="14" fill="#233659" stroke="#00d8ff"/>
<text x="154.0" y="469" text-anchor="middle" class="badge">Python</text>
<rect x="208" y="450" width="88" height="28" rx="14" fill="#233659" stroke="#00d8ff"/>
<text x="252.0" y="469" text-anchor="middle" class="badge">SQL</text>
<rect x="306" y="450" width="88" height="28" rx="14" fill="#233659" stroke="#00d8ff"/>
<text x="350.0" y="469" text-anchor="middle" class="badge">Power BI</text>
<rect x="404" y="450" width="88" height="28" rx="14" fill="#233659" stroke="#00d8ff"/>
<text x="448.0" y="469" text-anchor="middle" class="badge">EDA</text>
<rect x="502" y="450" width="88" height="28" rx="14" fill="#233659" stroke="#00d8ff"/>
<text x="546.0" y="469" text-anchor="middle" class="badge">LLMs</text>
<rect x="600" y="450" width="99" height="28" rx="14" fill="#233659" stroke="#00d8ff"/>
<text x="649.5" y="469" text-anchor="middle" class="badge">Prompt Eng.</text>
<rect x="80" y="600" width="1240" height="360" rx="18" fill="#18233d" stroke="url(#acc)" stroke-width="2"/>
<text x="105" y="638" class="h">📊 Business Intelligence Intern</text>
<text x="1230" y="638" text-anchor="end" class="b">March 2026</text>
<text x="105" y="668" class="s">Microsoft Elevate × AICTE • Online</text>
<text x="110" y="705" class="b">• Built interactive Power BI dashboards using DAX &amp; Power Query.</text>
<text x="110" y="739" class="b">• Transformed raw sales data into business insights.</text>
<text x="110" y="773" class="b">• Monitored KPIs and business performance.</text>
<text x="110" y="807" class="b">• Generated reports using SQL &amp; Python.</text>
<text x="105" y="850" class="h">Technical Skills &amp; Coding Platforms</text>
<rect x="110" y="880" width="88" height="28" rx="14" fill="#233659" stroke="#00d8ff"/>
<text x="154.0" y="899" text-anchor="middle" class="badge">Power BI</text>
<rect x="208" y="880" width="88" height="28" rx="14" fill="#233659" stroke="#00d8ff"/>
<text x="252.0" y="899" text-anchor="middle" class="badge">DAX</text>
<rect x="306" y="880" width="99" height="28" rx="14" fill="#233659" stroke="#00d8ff"/>
<text x="355.5" y="899" text-anchor="middle" class="badge">Power Query</text>
<rect x="415" y="880" width="88" height="28" rx="14" fill="#233659" stroke="#00d8ff"/>
<text x="459.0" y="899" text-anchor="middle" class="badge">Python</text>
<rect x="513" y="880" width="88" height="28" rx="14" fill="#233659" stroke="#00d8ff"/>
<text x="557.0" y="899" text-anchor="middle" class="badge">SQL</text>
<rect x="611" y="880" width="88" height="28" rx="14" fill="#233659" stroke="#00d8ff"/>
<text x="655.0" y="899" text-anchor="middle" class="badge">Excel</text>
<rect x="80" y="1030" width="1240" height="360" rx="18" fill="#18233d" stroke="url(#acc)" stroke-width="2"/>
<text x="105" y="1068" class="h">🧪 Software Testing Intern</text>
<text x="1230" y="1068" text-anchor="end" class="b">Current</text>
<text x="105" y="1098" class="s">ServiceNow • On-site</text>
<text x="110" y="1135" class="b">• Conducted Functional, Regression &amp; Validation Testing.</text>
<text x="110" y="1169" class="b">• Identified and tracked software defects.</text>
<text x="110" y="1203" class="b">• Collaborated with developers to improve software quality.</text>
<text x="110" y="1237" class="b">• Verified stable software releases.</text>
<text x="105" y="1280" class="h">Technical Skills &amp; Coding Platforms</text>
<rect x="110" y="1310" width="88" height="28" rx="14" fill="#233659" stroke="#00d8ff"/>
<text x="154.0" y="1329" text-anchor="middle" class="badge">QA</text>
<rect x="208" y="1310" width="90" height="28" rx="14" fill="#233659" stroke="#00d8ff"/>
<text x="253.0" y="1329" text-anchor="middle" class="badge">Regression</text>
<rect x="308" y="1310" width="90" height="28" rx="14" fill="#233659" stroke="#00d8ff"/>
<text x="353.0" y="1329" text-anchor="middle" class="badge">Validation</text>
<rect x="408" y="1310" width="108" height="28" rx="14" fill="#233659" stroke="#00d8ff"/>
<text x="462.0" y="1329" text-anchor="middle" class="badge">Bug Tracking</text>
<rect x="526" y="1310" width="88" height="28" rx="14" fill="#233659" stroke="#00d8ff"/>
<text x="570.0" y="1329" text-anchor="middle" class="badge">Testing</text>
<rect x="80" y="1470" width="1240" height="150" rx="18" fill="#18233d" stroke="url(#acc)" stroke-width="2"/>
<text x="700" y="1505" text-anchor="middle" class="h">Developer Toolkit</text>
<text x="120" y="1545" class="b">Languages: Python • SQL • Java</text>
<text x="120" y="1575" class="b">Backend: Spring Boot • REST APIs</text>
<text x="120" y="1605" class="b">Business Intelligence: Power BI • DAX • Power Query</text>
<text x="760" y="1545" class="b">AI: LLMs • Prompt Engineering</text>
<text x="760" y="1575" class="b">Databases: MySQL • SQL Server</text>
<text x="760" y="1605" class="b">Tools: Git • GitHub • Excel • Tableau</text>
</svg>
